HIERARCHY
ROOT hip
{
  OFFSET 0 0 0
  CHANNELS 6 Xposition Yposition Zposition Zrotation Yrotation Xrotation
  JOINT abdomen
  {
    OFFSET 0 20.6881 -0.73152
    CHANNELS 3 Zrotation Xrotation Yrotation
    JOINT chest
    {
      OFFSET 0 11.7043 -0.48768
      CHANNELS 3 Zrotation Xrotation Yrotation
      JOINT neck
      {
        OFFSET 0 22.1894 -2.19456
        CHANNELS 3 Zrotation Xrotation Yrotation
        JOINT head
        {
          OFFSET -0.24384 7.07133 1.2192
          CHANNELS 3 Zrotation Xrotation Yrotation
          JOINT leftEye
          {
            OFFSET 4.14528 8.04674 8.04672
            CHANNELS 3 Zrotation Xrotation Yrotation
            End Site
            {
              OFFSET 1 0 0
            }
          }
          JOINT rightEye
          {
            OFFSET -3.6576 8.04674 8.04672
            CHANNELS 3 Zrotation Xrotation Yrotation
            End Site
            {
              OFFSET 1 0 0
            }
          }
        }
      }
      JOINT rCollar
      {
        OFFSET -2.68224 19.2634 -4.8768
        CHANNELS 3 Zrotation Xrotation Yrotation
        JOINT rShldr
        {
          OFFSET -8.77824 -1.95073 1.46304
          CHANNELS 3 Zrotation Xrotation Yrotation
          JOINT rForeArm
          {
            OFFSET -28.1742 -1.7115 0.48768
            CHANNELS 3 Zrotation Xrotation Yrotation
            JOINT rHand
            {
              OFFSET -22.5879 0.773209 7.07136
              CHANNELS 3 Zrotation Xrotation Yrotation
              JOINT rThumb1
              {
                OFFSET -1.2192 -0.487915 3.41376
                CHANNELS 3 Zrotation Xrotation Yrotation
                JOINT rThumb2
                {
                  OFFSET -3.37035 -0.52449 3.41376
                  CHANNELS 3 Zrotation Xrotation Yrotation
                  End Site
                  {
                    OFFSET -1.78271 -1.18214 1.43049
                  }
                }
              }
              JOINT rIndex1
              {
                OFFSET -7.75947 0.938293 5.60832
                CHANNELS 3 Zrotation Xrotation Yrotation
                JOINT rIndex2
                {
                  OFFSET -2.54057 -0.884171 1.56538
                  CHANNELS 3 Zrotation Xrotation Yrotation
                  End Site
                  {
                    OFFSET -1.62519 -0.234802 1.16502
                  }
                }
              }
              JOINT rMid1
              {
                OFFSET -8.24714 1.18213 3.41376
                CHANNELS 3 Zrotation Xrotation Yrotation
                JOINT rMid2
                {
                  OFFSET -3.10165 -0.590103 1.0647
                  CHANNELS 3 Zrotation Xrotation Yrotation
                  End Site
                  {
                    OFFSET -2.48547 -0.328903 0.83742
                  }
                }
              }
              JOINT rRing1
              {
                OFFSET -8.82822 0.546677 1.51678
                CHANNELS 3 Zrotation Xrotation Yrotation
                JOINT rRing2
                {
                  OFFSET -2.60934 -0.819778 -0.0198488
                  CHANNELS 3 Zrotation Xrotation Yrotation
                  End Site
                  {
                    OFFSET -2.33842 -0.294052 0.168128
                  }
                }
              }
              JOINT rPinky1
              {
                OFFSET -8.27202 -0.0477905 -0.4584
                CHANNELS 3 Zrotation Xrotation Yrotation
                JOINT rPinky2
                {
                  OFFSET -1.82734 -0.647385 -0.700984
                  CHANNELS 3 Zrotation Xrotation Yrotation
                  End Site
                  {
                    OFFSET -1.69225 -0.51767 -0.607171
                  }
                }
              }
            }
          }
        }
      }
      JOINT lCollar
      {
        OFFSET 2.68224 19.2634 -4.8768
        CHANNELS 3 Zrotation Xrotation Yrotation
        JOINT lShldr
        {
          OFFSET 8.77824 -1.95073 1.46304
          CHANNELS 3 Zrotation Xrotation Yrotation
          JOINT lForeArm
          {
            OFFSET 28.1742 -1.7115 0.48768
            CHANNELS 3 Zrotation Xrotation Yrotation
            JOINT lHand
            {
              OFFSET 22.5879 0.773209 7.07136
              CHANNELS 3 Zrotation Xrotation Yrotation
              JOINT lThumb1
              {
                OFFSET 1.2192 -0.487915 3.41376
                CHANNELS 3 Zrotation Xrotation Yrotation
                JOINT lThumb2
                {
                  OFFSET 3.37035 -0.52449 3.41376
                  CHANNELS 3 Zrotation Xrotation Yrotation
                  End Site
                  {
                    OFFSET 1.78271 -1.18214 1.43049
                  }
                }
              }
              JOINT lIndex1
              {
                OFFSET 7.75947 0.938293 5.60832
                CHANNELS 3 Zrotation Xrotation Yrotation
                JOINT lIndex2
                {
                  OFFSET 2.54057 -0.884171 1.56538
                  CHANNELS 3 Zrotation Xrotation Yrotation
                  End Site
                  {
                    OFFSET 1.62519 -0.234802 1.16502
                  }
                }
              }
              JOINT lMid1
              {
                OFFSET 8.24714 1.18213 3.41376
                CHANNELS 3 Zrotation Xrotation Yrotation
                JOINT lMid2
                {
                  OFFSET 3.10165 -0.590103 1.0647
                  CHANNELS 3 Zrotation Xrotation Yrotation
                  End Site
                  {
                    OFFSET 2.48547 -0.328903 0.83742
                  }
                }
              }
              JOINT lRing1
              {
                OFFSET 8.82822 0.546677 1.51678
                CHANNELS 3 Zrotation Xrotation Yrotation
                JOINT lRing2
                {
                  OFFSET 2.60934 -0.819778 -0.0198488
                  CHANNELS 3 Zrotation Xrotation Yrotation
                  End Site
                  {
                    OFFSET 2.33842 -0.294052 0.168128
                  }
                }
              }
              JOINT lPinky1
              {
                OFFSET 8.27202 -0.0477905 -0.4584
                CHANNELS 3 Zrotation Xrotation Yrotation
                JOINT lPinky2
                {
                  OFFSET 1.82734 -0.647385 -0.700984
                  CHANNELS 3 Zrotation Xrotation Yrotation
                  End Site
                  {
                    OFFSET 1.69225 -0.51767 -0.607171
                  }
                }
              }
            }
          }
        }
      }
    }
  }
  JOINT rButtock
  {
    OFFSET -8.77824 4.35084 1.2192
    CHANNELS 3 Zrotation Xrotation Yrotation
    JOINT rThigh
    {
      OFFSET 0 -1.70687 -2.19456
      CHANNELS 3 Zrotation Xrotation Yrotation
      JOINT rShin
      {
        OFFSET 0 -36.8199 0.73152
        CHANNELS 3 Zrotation Xrotation Yrotation
        JOINT rFoot
        {
          OFFSET 0.73152 -45.1104 -5.12064
          CHANNELS 3 Zrotation Xrotation Yrotation
          End Site
          {
            OFFSET -1.1221 -3.69964 12.103
          }
        }
      }
    }
  }
  JOINT lButtock
  {
    OFFSET 8.77824 4.35084 1.2192
    CHANNELS 3 Zrotation Xrotation Yrotation
    JOINT lThigh
    {
      OFFSET 0 -1.70687 -2.19456
      CHANNELS 3 Zrotation Xrotation Yrotation
      JOINT lShin
      {
        OFFSET 0 -36.8199 0.73152
        CHANNELS 3 Zrotation Xrotation Yrotation
        JOINT lFoot
        {
          OFFSET -0.73152 -45.1104 -5.12064
          CHANNELS 3 Zrotation Xrotation Yrotation
          End Site
          {
            OFFSET 1.1221 -3.69964 12.103
          }
        }
      }
    }
  }
}
MOTION
Frames:	4
Frame Time:	0.03333
0.0006835907697677612 -12.832090258598328 -0.05066506564617157 -4.334366321563721 2.3843276500701904 6.205700874328613 -2.5906801223754883 13.91319751739502 3.4840903282165527 2.711273193359375 -9.494336128234863 1.1033875942230225 -5.416274547576904 15.236824035644531 -4.218936920166016 9.320127487182617 -24.52646827697754 -6.246552467346191 0.061984024941921234 0.06661810725927353 0.014359461143612862 0.019291376695036888 -0.024691712111234665 -0.026440637186169624 -0.01464183907955885 0.038434430956840515 -0.0006590815028175712 46.045284271240234 36.822269439697266 18.235166549682617 -27.340904235839844 -27.468793869018555 63.1649284362793 -0.28350433707237244 -9.319624900817871 -1.327834963798523 0.05747705325484276 -0.049898259341716766 -0.039225660264492035 0.006692973431199789 -0.0035559090320020914 0.005773575976490974 0.02094479463994503 0.037407103925943375 0.003199053695425391 7.743242263793945 5.3975510597229 0.4521757960319519 0.01391208078712225 0.023241378366947174 -0.006988505367189646 2.933678388595581 0.9882426261901855 0.09740610420703888 0.06685227155685425 -0.046359214931726456 -0.029048549011349678 10.246769905090332 0.7312803864479065 -0.011462509632110596 0.03372514620423317 -0.008483334444463253 0.017116505652666092 2.2085049152374268 -0.7364846467971802 -0.22130070626735687 -0.03269721195101738 0.004690736997872591 -0.005568310618400574 -53.90132141113281 41.668983459472656 -27.741273880004883 26.99589729309082 -26.098119735717773 -60.710052490234375 0.28197142481803894 -13.725445747375488 1.9242042303085327 0.014803970232605934 0.0001981171953957528 -0.011972657404839993 -0.059014491736888885 -0.0014251559041440487 -0.03895150125026703 -0.021938374266028404 -0.0007320561562664807 -0.036222007125616074 -7.706265449523926 5.455134868621826 -0.4275113642215729 0.04071974754333496 -0.04269834980368614 0.047837696969509125 -2.894566059112549 0.9702252149581909 -0.14609503746032715 0.1147276982665062 0.01742994412779808 0.031246425583958626 -10.297078132629395 0.7137317061424255 -0.0313309021294117 0.004363249056041241 -0.012320851907134056 -0.07297180593013763 -2.2028636932373047 -0.7497379779815674 0.20897549390792847 -0.08733724802732468 0.017594443634152412 -0.04018648713827133 -23.82965660095215 -39.724674224853516 -19.518625259399414 -1.4700897932052612 64.25572204589844 2.5783703327178955 -3.614057779312134 -10.669185638427734 -9.66526985168457 0.10348817706108093 -0.020849116146564484 -0.0880502238869667 27.96305274963379 -37.849510192871094 20.840362548828125 1.20652174949646 63.775352478027344 -2.478334903717041 4.3028645515441895 -10.837780952453613 14.207905769348145
0.00401567667722702 -12.815596163272858 -0.10014111176133156 -4.514407157897949 2.825705051422119 6.304662704467773 -2.6038005352020264 13.861152648925781 3.468501567840576 2.675654649734497 -9.495295524597168 1.0513205528259277 -5.3725128173828125 15.272636413574219 -4.1871771812438965 9.4031400680542 -24.662912368774414 -6.217684745788574 0.06782073527574539 0.048245880752801895 -0.027430040761828423 0.007678931578993797 -0.017979498952627182 -0.022908907383680344 0.013760630041360855 0.044745903462171555 -0.026923973113298416 45.71329879760742 36.62135696411133 18.461444854736328 -27.379863739013672 -27.541154861450195 63.294315338134766 -0.2869279980659485 -9.276788711547852 -1.3244364261627197 0.07563218474388123 -0.06080847233533859 -0.05247101932764053 0.00442633219063282 0.03355863317847252 0.040071118623018265 -0.01766393892467022 0.05540744587779045 0.006632215343415737 7.729206562042236 5.403127193450928 0.4506458640098572 0.03462778031826019 -0.01125127263367176 0.00578925060108304 2.9493508338928223 0.9634323716163635 0.07689499855041504 0.08432730287313461 -0.04802578687667847 -0.026094401255249977 10.221132278442383 0.7264037728309631 -0.026785187423229218 0.04428103193640709 0.02200949378311634 0.020581994205713272 2.236215829849243 -0.7249593138694763 -0.20055004954338074 -0.015265763737261295 -0.013479783199727535 0.0038821047637611628 -53.42201232910156 42.22574234008789 -28.17087745666504 27.004837036132812 -26.185457229614258 -60.93181228637695 0.28282904624938965 -14.296743392944336 1.9488195180892944 0.008094105869531631 -0.015323109924793243 -0.04037019982933998 -0.06844542920589447 -0.025058206170797348 -0.026541274040937424 -0.01742161437869072 0.016475047916173935 -0.050585273653268814 -7.731324672698975 5.45009708404541 -0.422505259513855 0.015041549690067768 -0.06087629869580269 0.04062557592988014 -2.8727006912231445 0.9720792174339294 -0.14199678599834442 0.10971997678279877 -0.0074571119621396065 0.039851658046245575 -10.299344062805176 0.7050496935844421 -0.005949040874838829 0.00848979689180851 -0.008052710443735123 -0.04044220596551895 -2.2317922115325928 -0.756149172782898 0.2431541383266449 -0.11621265858411789 0.01877746358513832 -0.048115793615579605 -23.897907257080078 -39.97590255737305 -19.69172477722168 -1.557013988494873 64.45166778564453 2.6595423221588135 -3.5712740421295166 -10.661413192749023 -9.586454391479492 0.14222131669521332 -0.016467561945319176 -0.09910411387681961 27.85636329650879 -37.84785461425781 20.65109634399414 1.237379789352417 63.75050354003906 -2.467590093612671 4.218001365661621 -10.925202369689941 14.133455276489258
0.010119006037712097 -11.392879486083984 -0.15171188861131668 10.577790260314941 27.037174224853516 7.190925121307373 -17.76121711730957 10.078973770141602 4.368685245513916 4.774090766906738 -9.629027366638184 1.1905982494354248 -8.859708786010742 18.141315460205078 -12.37331485748291 13.167532920837402 -25.774051666259766 -21.40972328186035 0.04511908441781998 0.018455244600772858 -0.04804788529872894 -0.022647157311439514 0.011995391920208931 0.03334638476371765 0.04318477585911751 0.11549235880374908 -0.0887744352221489 36.071537017822266 11.288430213928223 35.464759826660156 -14.427506446838379 -7.365771293640137 26.21784782409668 -0.47721147537231445 17.276819229125977 2.3413684368133545 0.16056114435195923 -0.044746678322553635 -0.08947735279798508 -0.04715089872479439 0.13466641306877136 0.01121553685516119 -0.0054951016791164875 0.1349777728319168 -0.09311056137084961 7.790304183959961 5.373119354248047 0.5215495228767395 0.1088811531662941 -0.031974706798791885 -0.004733215551823378 2.9316318035125732 1.1005802154541016 0.016000045463442802 0.15492913126945496 0.0004524521646089852 -0.09181749820709229 10.227691650390625 0.7600491046905518 0.033114880323410034 -0.09148815274238586 0.048120927065610886 0.023190027102828026 2.2471749782562256 -0.7782900929450989 -0.2440488636493683 -0.010722149163484573 -0.06695399433374405 0.07550839334726334 -107.30696868896484 50.76530838012695 46.115047454833984 28.185001373291016 -40.018898010253906 -83.91971588134766 1.234299898147583 -29.026718139648438 4.403733730316162 -0.003732979064807296 0.1243889331817627 -0.011141631752252579 0.02370232157409191 0.0017657189164310694 0.011723040603101254 0.037472184747457504 0.019360926002264023 -0.00027607782976701856 -7.643433094024658 5.530522346496582 -0.4865116775035858 0.039277393370866776 0.07737807184457779 0.09454792737960815 -2.954705238342285 1.0543642044067383 -0.15419231355190277 0.037053074687719345 0.009481405839323997 0.10513205081224442 -10.339935302734375 0.6892576813697815 0.003866787301376462 -0.011477281339466572 0.06718411296606064 -0.08669332414865494 -2.3826451301574707 -0.7811118364334106 0.24312855303287506 -0.030874134972691536 0.0852598175406456 0.03728945553302765 -63.861385345458984 -56.0263557434082 -54.247772216796875 -2.85664963722229 73.64197540283203 3.420685291290283 2.8615822792053223 -2.342681646347046 15.073251724243164 0.13084183633327484 0.08659861981868744 -0.1941603571176529 13.535725593566895 8.193985939025879 2.9782791137695312 -0.15701504051685333 35.56187057495117 -2.486575126647949 8.732889175415039 -16.166913986206055 31.740318298339844
0.02055242657661438 -11.285002529621124 -0.22396501153707504 10.50722599029541 28.01318359375 5.981356620788574 -19.31596565246582 11.202129364013672 4.9575276374816895 5.3181915283203125 -9.358691215515137 1.2860348224639893 -8.909967422485352 17.83993911743164 -12.480224609375 12.094860076904297 -26.63158416748047 -22.175521850585938 0.024251407012343407 -0.011042299680411816 0.04577695578336716 -0.026142045855522156 0.21464788913726807 -0.0086188530549407 0.05109475553035736 0.006797081790864468 -0.03072301298379898 35.40125274658203 11.210594177246094 34.90245056152344 -14.005912780761719 -6.969752311706543 25.610084533691406 -0.5542087554931641 18.594850540161133 2.604796886444092 -0.0016971423756331205 -0.06979001313447952 0.000266772520262748 -0.08385821431875229 0.06559588015079498 0.010693050920963287 -0.14924180507659912 -0.007061933167278767 -0.01747594214975834 7.734949111938477 5.4290900230407715 0.6272315979003906 0.14041128754615784 0.02034040167927742 0.0727429911494255 2.8331873416900635 1.088355302810669 0.0113993464037776 0.0375656858086586 -0.05313849449157715 -0.11506161093711853 10.18780517578125 0.6877591609954834 0.12247154116630554 -0.15304453670978546 0.12007647007703781 -0.008802143856883049 2.3084447383880615 -0.7623070478439331 -0.2268008142709732 0.03226922079920769 0.06265643239021301 0.09350217133760452 -111.73500061035156 51.70100021362305 49.703460693359375 28.201419830322266 -39.39637756347656 -83.29898071289062 1.1372984647750854 -28.42627716064453 4.328563213348389 0.006288652773946524 0.036282289773225784 -0.004254247061908245 -0.0666607916355133 -0.09429875761270523 0.08303271979093552 0.10443384945392609 0.1689978539943695 0.0985482782125473 -7.651724815368652 5.60500431060791 -0.47020983695983887 0.1422077715396881 0.0868149846792221 -0.07336824387311935 -3.013885498046875 1.0224554538726807 -0.17445798218250275 0.059166163206100464 -0.06744162738323212 0.08971111476421356 -10.174348831176758 0.7217468619346619 -0.1281948983669281 0.028849544003605843 0.0689283162355423 -0.036002133041620255 -2.375213623046875 -0.787128210067749 0.33569836616516113 -0.1645091027021408 -0.025285139679908752 0.06901918351650238 -65.07935333251953 -55.89216995239258 -55.73448944091797 -1.8418302536010742 71.2757339477539 2.5278384685516357 2.9440505504608154 -1.1839697360992432 16.260202407836914 0.1317479908466339 -0.024957064539194107 -0.1492709219455719 12.308084487915039 9.835212707519531 2.4928622245788574 -0.026844263076782227 36.254241943359375 -2.8250374794006348 8.713489532470703 -16.842966079711914 33.16123580932617
